/* XPM */
static char *bitcoin64[] = {
/* columns rows colors chars-per-pixel */
"64 64 238 2 ",
"   c #131F2D",
".  c #15202E",
"X  c #15202F",
"o  c #15212F",
"O  c #16212F",
"+  c #162130",
"@  c #162230",
"#  c #172230",
"$  c #172231",
"%  c #172331",
"&  c #182331",
"*  c #182332",
"=  c #182432",
"-  c #192432",
";  c #1A2533",
":  c #1B2634",
">  c #1C2634",
",  c #1C2734",
"<  c #1C2735",
"1  c #1D2735",
"2  c #1D2835",
"3  c #1D2836",
"4  c #1E2836",
"5  c #1E2936",
"6  c #1E2937",
"7  c #1F2A37",
"8  c #1F2A38",
"9  c #212B39",
"0  c #212C39",
"q  c #222C3A",
"w  c #222D3A",
"e  c #232D3B",
"r  c #232E3B",
"t  c #242E3C",
"y  c #242F3C",
"u  c #27313E",
"i  c #293340",
"p  c #2A3441",
"a  c #2A3541",
"s  c #2B3542",
"d  c #2C3643",
"f  c #2D3744",
"g  c #2E3845",
"h  c #2F3945",
"j  c #2F3946",
"k  c #303A47",
"l  c #313A47",
"z  c #313B48",
"x  c #323C49",
"c  c #333C49",
"v  c #333D49",
"b  c #343D4A",
"n  c #343E4A",
"m  c #353F4B",
"M  c #37404C",
"N  c #37414C",
"B  c #38414D",
"V  c #38414E",
"C  c #39424E",
"Z  c #39434F",
"A  c #3A434F",
"S  c #3D4652",
"D  c #3D4752",
"F  c #3E4752",
"G  c #3E4753",
"H  c #404954",
"J  c #404955",
"K  c #414955",
"L  c #404A55",
"P  c #414A55",
"I  c #414A56",
"U  c #424B57",
"Y  c #434C57",
"T  c #444C57",
"R  c #444D58",
"E  c #464F5A",
"W  c #47505B",
"Q  c #48505B",
"!  c #48515C",
"~  c #49525D",
"^  c #505863",
"/  c #515963",
"(  c #515A64",
")  c #525A65",
"_  c #545C66",
"`  c #555C66",
"'  c #555D66",
"]  c #565E68",
"[  c #575F69",
"{  c #58606A",
"}  c #59616B",
"|  c #5D646E",
" . c #5D656E",
".. c #5D656F",
"X. c #616872",
"o. c #626973",
"O. c #636A74",
"+. c #636B74",
"@. c #646B75",
"#. c #646C75",
"$. c #686F77",
"%. c #696F77",
"&. c #696F78",
"*. c #697078",
"=. c #6A7078",
"-. c #6A7079",
";. c #69707A",
":. c #6A717A",
">. c #6C737C",
",. c #737A82",
"<. c #757C84",
"1. c #777D84",
"2. c #767D85",
"3. c #777D86",
"4. c #787E86",
"5. c #797F87",
"6. c #798088",
"7. c #7C838B",
"8. c #7E858C",
"9. c #7F858D",
"0. c #828890",
"q. c #858B93",
"w. c #878D94",
"e. c #888D95",
"r. c #8A8E95",
"t. c #8A8F95",
"y. c #8B8F95",
"u. c #898E96",
"i. c #8B9095",
"p. c #8D939A",
"a. c #8E949B",
"s. c #8F959B",
"d. c #92969B",
"f. c #92969C",
"g. c #93979C",
"h. c #93979D",
"j. c #92979E",
"k. c #93989F",
"l. c #93999F",
"z. c #959AA1",
"x. c #999EA4",
"c. c #9EA3A9",
"v. c #9FA3A9",
"b. c #A1A6AB",
"n. c #A3A7AB",
"m. c #A4A7AB",
"M. c #A1A6AC",
"N. c #A3A7AD",
"B. c #A4A8AE",
"V. c #A5A9AF",
"C. c #A5AAAF",
"Z. c #ABAFB4",
"A. c #AEB1B4",
"S. c #AFB1B4",
"D. c #AFB1B5",
"F. c #AEB2B7",
"G. c #AFB3B8",
"H. c #B0B4B9",
"J. c #B7B9BC",
"K. c #B7BABC",
"L. c #BCBFC3",
"P. c #BEC1C5",
"I. c #C0C3C7",
"U. c #C1C4C8",
"Y. c #C5C8CB",
"T. c #C6C9CC",
"R. c #C9CBCC",
"E. c #CACBCC",
"W. c #C9CBCF",
"Q. c #CBCCCE",
"!. c #CBCDCE",
"~. c #CCCDCE",
"^. c #CDCECF",
"/. c #CBCDD0",
"(. c #CDCED0",
"). c #CECED0",
"_. c #CECFD0",
"`. c #CFD1D4",
"'. c #D1D2D3",
"]. c #D2D2D3",
"[. c #D3D4D5",
"{. c #D4D4D5",
"}. c #D5D6D6",
"|. c #D6D6D7",
" X c #D6D7D7",
".X c #D6D8DA",
"XX c #D7D8DB",
"oX c #D6D8DF",
"OX c #DADADA",
"+X c #DADADB",
"@X c #D9DADF",
"#X c #DADBDF",
"$X c #DBDBDF",
"%X c #DBDCDF",
"&X c #DBDDDF",
"*X c gainsboro",
"=X c #DCDDDE",
"-X c #DDDDDE",
";X c #DCDCDF",
":X c #DCDDDF",
">X c #DDDDDF",
",X c #DDDEDE",
"<X c gray87",
"1X c #DFDFDF",
"2X c #D7D8E0",
"3X c #D7D9E0",
"4X c #D8D9E0",
"5X c #D8D9E1",
"6X c #D8DAE0",
"7X c #D9DAE0",
"8X c #D9DBE0",
"9X c #D9DBE1",
"0X c #DADBE0",
"qX c #DBDCE0",
"wX c #DCDEE0",
"eX c #DDDFE1",
"rX c gray88",
"tX c #E1E1E0",
"yX c #E1E1E1",
"uX c #E0E1E3",
"iX c #E2E3E5",
"pX c #E2E4E5",
"aX c #E4E5E7",
"sX c #E5E6E8",
"dX c #E8E9EB",
"fX c #EAEBEC",
"gX c #EDEEEF",
"hX c #EFF0F1",
"jX c #F0F1F2",
"kX c #F4F4F5",
"lX c #F8F8F9",
"zX c gray99",
"xX c #FCFDFD",
"cX c #FDFDFD",
"vX c #FEFEFE",
"bX c #FEFEFF",
"nX c white",
"mX c None",
/* pixels */
"mXmXmXmXmXmXmXmXmXmXmXmXmXmXmXmXmXmXmXmXmXmXmXmXmXmXmXmXmXmXmXmXmXmXmXmXmXmXmXmXmXmXmXmXmXmXmXmXmXmXmXmXmXmXmXmXmXmXmXmXmXmXmXmX",
"mXmXmXmXmXmXmXmXmXmXmXmXmXmXmXmXmXmXmXmXmXmXmXmXmXmXmXmXmX2XwX2X2XwX2XmXmXmXmXmXmXmXmXmXmXmXmXmXmXmXmXmXmXmXmXmXmXmXmXmXmXmXmXmX",
"mXmXmXmXmXmXmXmXmXmXmXmXmXmXmXmXmXmXmXmXmXmXmX2X@X@XeX;X<X<X<X<X<X<X<X<X<X%X%X0XoXmXmXmXmXmXmXmXmXmXmXmXmXmXmXmXmXmXmXmXmXmXmXmX",
"mXmXmXmXmXmXmXmXmXmXmXmXmXmXmXmXmXmXmXmXmX0X<X<X<X<X<X<X<X1X1XrXeX<XrX<X<X<X<X<X<XeX0XmXmXmXmXmXmXmXmXmXmXmXmXmXmXmXmXmXmXmXmXmX",
"mXmXmXmXmXmXmXmXmXmXmXmXmXmXmXmXmXmX0X0X<X<X<X<X1XyXyX<X+X[.~.E.E.).[.+XeXyXyX1X<X<X<X<X0X0XmXmXmXmXmXmXmXmXmXmXmXmXmXmXmXmXmXmX",
"mXmXmXmXmXmXmXmXmXmXmXmXmXmXmXmX0X;X<X<X<X<XyX<X).D.y.&./ I N v v N G ^ $.y.D.).<XyX<X<X<X<X@XmXmXmXmXmXmXmXmXmXmXmXmXmXmXmXmXmX",
"mXmXmXmXmXmXmXmXmXmXmXmXmXmXmX0X<X<X<XeXyX].n.&.B 9 # # . . # . # # # # . # 9 B $.m.].yX<X<X<X<X0XmXmXmXmXmXmXmXmXmXmXmXmXmXmXmX",
"mXmXmXmXmXmXmXmXmXmXmXmXmXmX%X<X<X1XyX~.y.I 7 # & ; & ; ; ; ; ; ; ; ; # ; ; ; & . 7 Y y.~.yXrX<X<X%XmXmXmXmXmXmXmXmXmXmXmXmXmXmX",
"mXmXmXmXmXmXmXmXmXmXmXmX0X%X<X<XrX Xg.S ; # ; & ; ; = # # # ; # = ; ; # ; & ; & ; & . ; S g. X<X<X<X<XoXmXmXmXmXmXmXmXmXmXmXmXmX",
"mXmXmXmXmXmXmXmXmXmXmX0X<X<X<XeXK.' ; # & & & ; ; # p a.I # ; ; ; # ; ; & ; & ; & ; & ; # ; ' J.eX<X<X<X0XmXmXmXmXmXmXmXmXmXmXmX",
"mXmXmXmXmXmXmXmXmXmX@X<X<X<X*Xg.h . ; ; ; & ; & # # h B.! # # ; # ; # ; ; & ; & ; & ; & ; & . h g.;XeX<X<X@XmXmXmXmXmXmXmXmXmXmX",
"mXmXmXmXmXmXmXmXmX0X<X<XrX X1.7 # ; # # & ; & ; ; ; ; ; = ; ; = ; ; # ; & ; & ; & ; & ; & ; ; # 9 1.|.<X<X<X0XmXmXmXmXmXmXmXmXmX",
"mXmXmXmXmXmXmXmX@X<X<X<X X&.; & # ; ; ; ; ; ; # ; ; # ; ; = ; ; ; # ; ; ; & ; & ; & ; & ; & ; & # ; $.{.<X<X<X0XmXmXmXmXmXmXmXmX",
"mXmXmXmXmXmXmXmX;X<XeX X$.& & ; ; ; # ; # # ; ; # ; # ; # . X # = . . ; & ; & ; & ; & ; & ; & ; & ; & $. X<X<X%XmXmXmXmXmXmXmXmX",
"mXmXmXmXmXmXmX@X<X<X<X1.; & & ; ; # ; # ; ; # ; ; ; ; ; # S 8.B.B.6.v # ; ; ; ; ; & ; & ; & ; & & ; & ; 1.<X<X<X%XmXmXmXmXmXmXmX",
"mXmXmXmXmXmX@X<X<X1Xg.8 & & ; & ; # ; ; ; # ; ; # # ; # #.wXnXnXnXnX.X} . & . & & ; & ; & ; & ; ; & ; & 7 d.yX<X<X@XmXmXmXmXmXmX",
"mXmXmXmXmX0X<X<X1XK.h # ; & ; & ; & ; & ; & ; & * ; # ^ dXnXnXnXnXnXnXyXW 0 v p # & ; & ; & ; & & ; & ; # h K.eX<X<XmXmXmXmXmXmX",
"mXmXmXmXmX@X<X<X X' . ; & ; & ; & ; & ; & ; & ; ; # ; G.nXnXnXnXnXnXnXnX.X).pX8.. ; & ; & ; & ; ; & ; & & # _ |.eX<X;XmXmXmXmXmX",
"mXmXmXmX2X<X<XyXg.> ; & ; & ; & ; & ; & & ; ; & ; t E iXnXnXnXnXnXnXnXnXhXz.-.B ; ; ; & ; & ; & & & & ; ; & ; g.tX<X<XoXmXmXmXmX",
"mXmXmXmX0X<X<X~.S # & ; & ; & ; & ; & ; ; & ; & 1.`.aXnXnXnXnXnXnXnXnXnXwXp   # ; & & ; & ; & ; ; & # & & ; # S Q.1X<X@XmXmXmXmX",
"mXmXmXmX<X<XyXi.; & ; & ; & ; & & ; ; & & ; & # X.p.,.wXnXnXnXnXnXnXnXnXT.r & & & ; & ; ; & ; & & S ) & ; & ; & y.tX<X<XmXmXmXmX",
"mXmXmX0X<X<X].R . ; & ; & ; & ; ; & & ; ; & & ; # # . g.nXnXnXnXnXnXnXnX0.. ; ; ; & ; & & ; & ; # X.y.; & ; & # I ].eX<X@XmXmXmX",
"mXmXmX<X<XyXm.7 ; & ; & ; & ; & & > 0 & ; & ; & ; & & v W.nXnXnXnXnXnXL.d ; & ; & ; & ; ; & ; & ; ; > & ; & ; & 7 m.eX<X<XmXmXmX",
"mXmXoX<X<X<X&.. & ; & ; & ; ; & t v.U.Y . ; & ; & ; ; # B Z.gXxXxXdXn.x . & ; & ; & ; & & ; & ; & ; ; ; & ; & ; . $.<X<X<XmXmXmX",
"mXmX@X<XeX~.S . ; & ; & ; & ; . m pXnX>.. ; ; & ; & ; & # 7 Y #.X.I ; # ; & ; & ; & ; & ; & ; & ; & ; & ; & ; & & B ~.tX<X@XmXmX",
"mXmX@X<XyXD.0 & ; ; & ; & ; & ; > :.w.f # & & ; & ; & ; ; # #   . # & ; ; ; & ; & ; & ; & ; & ; & ; & ; & ; & ; ; 0 D.yX<X@XmXmX",
"mXmX<X<XyXi.# ; ; & ; & ; & ; & & # . & & ; & ; ; & ; & ; ; # ; ; & ; & ; & ; & ; & ; & ; & ; & ; & ; & ; & ; & & # y.yX<X0XmXmX",
"mXmXeX<X<X-.. ; & ; & ; & ; & ; ; & ; ; ; & ; & & ; & ; # ; ; ; & ; & ; & ; & ; & ; & ; & ; & ; & ; & ; & ; & ; ; . &.eX<X<XmXmX",
"mXmX<X<X@X/ . ; ; & ; & ; & ; & & ; & ; & ; & ; ; & ; & ; & ; # ; & ; & ; & ; & ; & ; & ; & ; & ; & ; & ; & ; & ; . / +X<X<XmXmX",
"mX0X<X<X[.P . & & ; & ; & ; & ; ; & ; & ; & ; & & ; & ; & ; ; ; & ; & ; & ; & ; & ; & ; & ; & ; & ; & ; & ; & ; & . P  X1X<X0XmX",
"mX0X<X<X~.B # ; ; . # ; ; & ; & & ; & ; & ; & ; ; & ; & ; & ; # # # ; & ; & ; & ; & ; & ; & ; & ; & ; & ; & ; & ; . M ~.eX<X0XmX",
"mX0X<XeXE.v # ; & ! ] ; & ; & ; ; & ; & ; & ; & & ; & ; & ; # t I p # ; & ; & ; & ; & ; & ; & ; & ; & ; & ; & ; ; # v W.<X<X0XmX",
"mX2X<X1XW.v # # # y.M.> ; & ; & & ; & ; & ; & ; & ; & ; ; # i G.hXY.S . = ; ; # ; # ; ; ; # ; & ; & ; & & ; & ; & # v E.<X<X0XmX",
"mXwX<X<X).N # ; # t i & & ; & ; ; & ; & ; & ; & ; & ; & & X } lXnXnX5.. ; # ; ; ; # ; # ; ; # . & ; & ; ; & ; & ; # N ~.1X<X0XmX",
"mX0X<X<X[.I # = ; # & ; ; & ; & & ; & ; & ; & ; & ; & ; ; # Y sXnXkX... # ; # ; ; ; # ; # & O.) # & ; & & ; & ; & # G [.rX<X2XmX",
"mXmX<X<X+X/ . ; * ; & ; & ; & ; ; & ; & ; & ; & ; & ; & ; & ; ] x.-.7 = ; ; # ; # ; ; ; ; 7 v.8.# ; & ; ; & ; & ; . ) +X<X<XmXmX",
"mXmXeX<XeX-.. ; ; & ; & ; & ; & & ; & ; & ; & ; & ; & ; & ; & # # . # ; ; ; # ; ; ; # # # ; 0 7 ; ; & ; & ; & ; ; . *.1X<X<XmXmX",
"mXmX;X<XrXy.# ; & ; & ; & ; & ; ; & ; & ; & ; & ; & ; & ; & ; & = ; ; ; # ; # ; # ; ; ; ; ; # ; ; & ; & ; & ; & = # y.yX<X%XmXmX",
"mXmX@X<XrXD.0 * ; & ; & ; & ; & & ; & ; & ; & ; & ; & ; & ; & ; ; # ; # ; # ; ; # ; ; ; ; # # ; & ; & ; & ; & ; = 9 D.yX<X@XmXmX",
"mXmX@X<X<X).S # & ; & ; & ; & ; ; & ; & ; & ; & ; & ; & ; & ; & ; ; ; # ; ; ; # ; ; # # ; ; ; ; ; & ; & ; & ; & # B ).<X<X0XmXmX",
"mXmXmX<X<X<X&.# ; & ; & ; & ; & & # ; ; & ; & ; & ; & ; & ; & ; # # ; ; & ; & ; & ; & ; ; ; # # ; & ; & ; & ; & # $.<X<X<XoXmXmX",
"mXmXmX<X<XyXn.7 & ; & ; & ; & ; 8 x > ; ; & ; & ; & ; & ; & ; & ; ; ; # ; & ; & ; & ; & # ; ; ; & ; & ; & ; & ; 7 B.rX<X%XmXmXmX",
"mXmXmX@X<X<X].I # & ; & ; & ; ; q.iX4.& & ; & ; & ; & ; & ; & ; ; ; ; # & ; & ; & ; & ; ; = = ; ; & ; & ; & ; . I ].<X<X@XmXmXmX",
"mXmXmXmX<X<XyXi.& ; & ; & ; & > G.nXM.& ; & ; & ; & ; & ; & ; & # # ; ; ; & ; & ; & ; & ; # . # . ; & ; & ; & ; i.tX<X<XmXmXmXmX",
"mXmXmXmX0X<X<X~.S # & & ; & ; # S 1.B # & ; & ; & ; & ; & ; & ; ; ; # # ; ; & ; & ; ; & # E k.k.! ; & ; ; ; . S E.<X<X@XmXmXmXmX",
"mXmXmXmX2X<X<XyXg.> & ; & ; & ; # # # & ; & ; & ; & ; & ; & ; & # 8 ..j # & ; & ; & & # G eXnXnXeXI # & ; ; , d.yX<X<X0XmXmXmXmX",
"mXmXmXmXmX0X<X<X X_ # ; ; & ; & ; * & ; & ; & ; & ; & ; & ; & ; # v Y.] # ; & ; & ; & X 8.nXnXnXnX0.. ; ; . )  XrX<X@XmXmXmXmXmX",
"mXmXmXmXmXmX<X<XeXK.h # & ; & ; & ; ; & ; & ; & ; & ; & ; & ; & ; ; j 8 ; & ; & ; & ; X 1.nXnXnXnX1.# & . h J.yX<X%X2XmXmXmXmXmX",
"mXmXmXmXmXmX@X<X<XyXg.7 # ; ; & ; & ; & ; & ; & ; & ; & & ; & ; & ; & & ; & ; & ; & ; # k P.zXnXP.x # # 7 d.tX<X<X@XmXmXmXmXmXmX",
"mXmXmXmXmXmXmX%X<X<X<X1.; # & ; & ; & ; & ; & ; & ; & ; ; & ; & ; & ; ; & ; & ; & ; & ; # f O.@.h # ; ; 1.;X<X<X%XmXmXmXmXmXmXmX",
"mXmXmXmXmXmXmXmX%X<X<X|.-.; # ; ; & ; & ; & ; & ; & ; & & ; & ; & ; ; & ; & ; & ; & ; & & & #   # ; & &. X<X<X%XmXmXmXmXmXmXmXmX",
"mXmXmXmXmXmXmXmX@X<X<X<X[.-.; # & ; & ; & ; & ; & ; & ; ; & ; & ; & & ; & ; & ; & ; & ; & ; & & # ; &.[.<X<X<X0XmXmXmXmXmXmXmXmX",
"mXmXmXmXmXmXmXmXmX0X<X<XeX X4.7 # & ; & & ; & ; ; & ; & 9 ; ; ; & ; & ; ; & ; & ; & ; & ; & ; # 8 1. X1X<X<X0XmXmXmXmXmXmXmXmXmX",
"mXmXmXmXmXmXmXmXmXmX@X<X<X<X*Xg.k . & ; ; & ; & & ; & , p.| . & ; & ; & & ; & ; & ; & ; & & # h g.<XeX<X<X@XmXmXmXmXmXmXmXmXmXmX",
"mXmXmXmXmXmXmXmXmXmXmX0X<X<X<XtXJ.' , # & ; & ; ; & ; ; / B ; ; & ; & ; ; & ; & ; & ; & # ; _ K.eX<X<X<X0XmXmXmXmXmXmXmXmXmXmXmX",
"mXmXmXmXmXmXmXmXmXmXmXmXoX%X<X<X1X Xd.S ; . ; & & ; & ; . & ; & ; & ; & & ; & ; & & # ; S d. X<X<X<X<X2XmXmXmXmXmXmXmXmXmXmXmXmX",
"mXmXmXmXmXmXmXmXmXmXmXmXmXmX%X<X<X<XyX~.y.T 9 . . ; ; ; ; ; ; ; & ; ; ; ; ; # # . 7 Y y.E.yXeX<X<X%XmXmXmXmXmXmXmXmXmXmXmXmXmXmX",
"mXmXmXmXmXmXmXmXmXmXmXmXmXmXmX0X<X<X<X1XyX].m.$.A 9 . . . . . & # # . . . # 8 S &.m.].yX1X<X<X<X0XmXmXmXmXmXmXmXmXmXmXmXmXmXmXmX",
"mXmXmXmXmXmXmXmXmXmXmXmXmXmXmXmXmX@X<X<X<XeXyX<X~.D.t.*./ I M v v N I / *.y.A.~.<XyX<X<X<X<X%X0XmXmXmXmXmXmXmXmXmXmXmXmXmXmXmXmX",
"mXmXmXmXmXmXmXmXmXmXmXmXmXmXmXmXmXmX2XwX<X<X<X<XtXyXtXtX+X{.~.W.W.~.[.+X<XyXyXeX<X<X<X<XwX2XmXmXmXmXmXmXmXmXmXmXmXmXmXmXmXmXmXmX",
"mXmXmXmXmXmXmXmXmXmXmXmXmXmXmXmXmXmXmXmXmX0X%X<X<X<X<X<X<XeX<X1X<XeX<X<X<X<X<X<X<X@X0XmXmXmXmXmXmXmXmXmXmXmXmXmXmXmXmXmXmXmXmXmX",
"mXmXmXmXmXmXmXmXmXmXmXmXmXmXmXmXmXmXmXmXmXmXmX2X@X@XeX<X%X<X<X<X<X<X<X<X<XeX@X@X0XmXmXmXmXmXmXmXmXmXmXmXmXmXmXmXmXmXmXmXmXmXmXmX",
"mXmXmXmXmXmXmXmXmXmXmXmXmXmXmXmXmXmXmXmXmXmXmXmXmXmXmXmXmX0X0X0X0X0X0XmXmXmXmXmXmXmXmXmXmXmXmXmXmXmXmXmXmXmXmXmXmXmXmXmXmXmXmXmX",
"mXmXmXmXmXmXmXmXmXmXmXmXmXmXmXmXmXmXmXmXmXmXmXmXmXmXmXmXmXmXmXmXmXmXmXmXmXmXmXmXmXmXmXmXmXmXmXmXmXmXmXmXmXmXmXmXmXmXmXmXmXmXmXmX"
};
