/* XPM */
static char *bitcoin16[] = {
/* columns rows colors chars-per-pixel */
"16 16 88 1 ",
"  c #000717",
". c #010D1D",
"X c #041120",
"o c #051120",
"O c #061221",
"+ c #071222",
"@ c #071322",
"# c #091423",
"$ c #091524",
"% c #0A1625",
"& c #0B1726",
"* c #0C1726",
"= c #0C1827",
"- c #0D1827",
"; c #0D1928",
": c #0E1928",
"> c #0F1A29",
", c #0F1B29",
"< c #101C2A",
"1 c #111C2B",
"2 c #121E2C",
"3 c #131E2C",
"4 c #141F2D",
"5 c #15202E",
"6 c #16212F",
"7 c #162130",
"8 c #172230",
"9 c #182331",
"0 c #192432",
"q c #1A2432",
"w c #1A2532",
"e c #1A2533",
"r c #1B2633",
"t c #1B2634",
"y c #1C2634",
"u c #1D2735",
"i c #1D2836",
"p c #1E2937",
"a c #1F2A37",
"s c #212C39",
"d c #222C3A",
"f c #242E3B",
"g c #283340",
"h c #2B3542",
"j c #2F3945",
"k c #2F3946",
"l c #313B47",
"z c #323C48",
"x c #3B4450",
"c c #47505B",
"v c #49525D",
"b c #4C5560",
"n c #4D5560",
"m c #4D5661",
"M c #4F5762",
"N c #505863",
"B c #565E69",
"V c #59616C",
"C c #5A626C",
"Z c #5D646E",
"A c #5D656F",
"S c #5E6670",
"D c #5F6770",
"F c #686F78",
"G c #757B83",
"H c #7E848C",
"J c #7E848D",
"K c #7E858D",
"L c #838990",
"P c #B6B9BD",
"I c #B6B9BE",
"U c #C5C7CB",
"Y c #CFD1D3",
"T c #D0D1D3",
"R c #D4D5D7",
"E c #D5D6D8",
"W c #E5E4E5",
"Q c gray90",
"! c #E5E6E8",
"~ c #E7E8EA",
"^ c gray93",
"/ c #EFEEEF",
"( c #EFEFF0",
") c gray95",
"_ c #F4F2F2",
"` c #F4F2F4",
"' c #FEFEFE",
"] c None",
/* pixels */
"]]]]]]])_]]]]]]]",
"]]]]^PJSSJP)]]]]",
"]]]EC&0# +*CE]]]",
"]]Rzo6,SA99olR]]",
"]QCo4,F''G10&CQ]",
"]P&9x8n~!l10f,P]",
"]Jo0vu-fs1008oJ]",
"^S00<99td9988,S^",
"^Su900,BL&6ha&A^",
"]Jo9<090099a0#J]",
"]P&sM60080066=P]",
"]QV&z808l01UNnQ]",
"]]Rl.900u06vnY]]",
"]]]EV&-t&o=nY]]]",
"]]]](PJAAJP^]]]]",
"]]]]]]]_`]]]]]]]"
};
