/* XPM */
static char *bitcoin32[] = {
/* columns rows colors chars-per-pixel */
"32 32 181 2 ",
"   c #000817",
".  c #000818",
"X  c #000A19",
"o  c #000C1B",
"O  c #010D1C",
"+  c #030F1E",
"@  c #040D1D",
"#  c #051120",
"$  c #051121",
"%  c #061120",
"&  c #061221",
"*  c #071322",
"=  c #081423",
"-  c #091524",
";  c #0A1624",
":  c #0A1625",
">  c #0B1625",
",  c #0B1726",
"<  c #0C1726",
"1  c #0C1826",
"2  c #0C1827",
"3  c #0D1928",
"4  c #0E1928",
"5  c #0E1A28",
"6  c #0E1A29",
"7  c #0F1A29",
"8  c #0F1B29",
"9  c #0F1B2A",
"0  c #101B29",
"q  c #101B2A",
"w  c #101C2A",
"e  c #111C2A",
"r  c #111C2B",
"t  c #111D2B",
"y  c #121D2B",
"u  c #121D2C",
"i  c #121E2C",
"p  c #131E2C",
"a  c #131E2D",
"s  c #131F2D",
"d  c #141F2D",
"f  c #141F2E",
"g  c #14202E",
"h  c #15202E",
"j  c #15202F",
"k  c #15212F",
"l  c #16212F",
"z  c #162130",
"x  c #172230",
"c  c #172331",
"v  c #182331",
"b  c #192331",
"n  c #192432",
"m  c #1A2432",
"M  c #1A2532",
"N  c #1A2533",
"B  c #1B2533",
"V  c #1B2634",
"C  c #1C2735",
"Z  c #1E2936",
"A  c #1F2A37",
"S  c #202A38",
"D  c #212B39",
"F  c #212C39",
"G  c #222C3A",
"H  c #222D3A",
"J  c #26303E",
"K  c #293440",
"L  c #293441",
"P  c #2A3541",
"I  c #2E3844",
"U  c #303A46",
"Y  c #303A47",
"T  c #313A47",
"R  c #343E4A",
"E  c #37414D",
"W  c #39424E",
"Q  c #3A434F",
"!  c #3C4551",
"~  c #3C4651",
"^  c #3E4752",
"/  c #3E4753",
"(  c #424B57",
")  c #444D59",
"_  c #454E59",
"`  c #464F5A",
"'  c #47505B",
"]  c #49525D",
"[  c #4A535E",
"{  c #4B545F",
"}  c #505762",
"|  c #505862",
" . c #505863",
".. c #515964",
"X. c #515A64",
"o. c #5C646E",
"O. c #5E6670",
"+. c #5F6670",
"@. c #606771",
"#. c #626973",
"$. c #646B74",
"%. c #646B75",
"&. c #656C75",
"*. c #656C76",
"=. c #6D747D",
"-. c #6F757D",
";. c #6F767E",
":. c #70777E",
">. c #737A82",
",. c #7E848A",
"<. c #7F848A",
"1. c #7E848C",
"2. c #81868D",
"3. c #8D9197",
"4. c #8D9297",
"5. c #8C9198",
"6. c #91969D",
"7. c #979CA2",
"8. c #9FA2A6",
"9. c #9FA2A7",
"0. c #9FA3A7",
"q. c #9EA3A9",
"w. c #A3A7AD",
"e. c #ABAEB1",
"r. c #ABAEB2",
"t. c #AAAEB3",
"y. c #ACAEB2",
"u. c #AEB2B7",
"i. c #B3B5B8",
"p. c #BBBEC3",
"a. c #C5C8CB",
"s. c #C7CACD",
"d. c #C9CCCF",
"f. c #CCCFD2",
"g. c #CED0D3",
"h. c #D0D2D5",
"j. c #D0D3D5",
"k. c #D4D5D6",
"l. c #D5D5D6",
"z. c #D5D6D6",
"x. c #D7D7DB",
"c. c #D7D8DB",
"v. c #D8DADD",
"b. c #DBDBDD",
"n. c #D9D9DE",
"m. c #DBDCDF",
"M. c #DFDFE4",
"N. c #DEE0E4",
"B. c #DFE1E4",
"V. c #E0E0E1",
"C. c #E1E1E2",
"Z. c #E3E3E5",
"A. c #E3E3E6",
"S. c #E3E3E7",
"D. c #E2E4E6",
"F. c #E3E4E6",
"G. c #E4E4E6",
"H. c #E4E4E7",
"J. c #E5E5E7",
"K. c #E5E5E8",
"L. c #E7E7E9",
"P. c #E8E8E9",
"I. c #EBEAEB",
"U. c #ECEBEC",
"Y. c #EEEEED",
"T. c #EFEEED",
"R. c #EFEEEE",
"E. c #F8F7F6",
"W. c #F8F8F7",
"Q. c #F9F8F8",
"!. c #FAFAF9",
"~. c #FBFAF9",
"^. c #FCFBFB",
"/. c #FCFCFB",
"(. c gray99",
"). c #FDFCFC",
"_. c #FDFDFD",
"`. c #FEFDFD",
"'. c #FEFEFE",
"]. c white",
"[. c None",
/* pixels */
"[.[.[.[.[.[.[.[.[.[.[.[.[.[.[.[.[.[.[.[.[.[.[.[.[.[.[.[.[.[.[.[.",
"[.[.[.[.[.[.[.[.[.[.[.N.H.Y.W.).].E.U.H.M.[.[.[.[.[.[.[.[.[.[.[.",
"[.[.[.[.[.[.[.[.[.G./.!.l.y.4.<.,.4.y.l.!.^.S.[.[.[.[.[.[.[.[.[.",
"[.[.[.[.[.[.[.N.].Y.0.| D $ $ - = ; 5 D } 0.Y.].M.[.[.[.[.[.[.[.",
"[.[.[.[.[.[.H.].i.^ - ; 5 ` I f n n x x ; - / i.].F.[.[.[.[.[.[.",
"[.[.[.[.[.L.E.2.9 , m m f { I f x n m m N x 2 5 2.E.I.[.[.[.[.[.",
"[.[.[.[.F.E.-.$ g m n n m 9 $ f w ; m m N N N f $ -.E.S.[.[.[.[.",
"[.[.[.x.].2.$ x n n n m m , *.s.s.+.O < N x n n x $ 2.].c.[.[.[.",
"[.[.[.].i.9 x n n n n n X ' ].(.].].5.-.f n n n n f 5 i.].[.[.[.",
"[.[.b.Y./ ; n n n n x f #.g.].].(.].p.E g n n x x x < / Y.b.[.[.",
"[.[.^.0.; n m N 9 ; N x [ 6.].].].].o.O n n n f / ' w ; q.^.[.[.",
"[.b.!.| ; n n 9 X.#.f N ; 5 t.(.!.w.f x n n n n Z Z n ; } !.b.[.",
"[.V.l.D h m n ; 1.q., n m g 5 ~ ~ 5 f m n n n n n x m f D l.V.[.",
"[.I.y.5 x m n N f 9 n n n n n 9 5 x n m n n n n n m m x 2 y.U.[.",
"[.W.4.; h h m m x x m n n n n x f m n n n n m m n n n n ; 5.E.[.",
"[.^.<.$ Y R g m m m n n n n n m K g n n n n n x n n n n ; <.^.[.",
"[./.<.@ ( ] 9 n n n n n n m * 7.(./ 5 N n n n x n n n n ; ,.^.[.",
"[.E.4.- w g m n n n n n n m , >.a.I f N n x D =.n x n n = 5.!.[.",
"[.I.u.2 m m n n n n n n n n m 9 5 g m x n n N H n n n n 2 t.I.[.",
"[.V.l.F g n n m g n n n n n n n x n n N n N N x n n n f F l.V.[.",
"[.b.!.| , n n n A V n m n n n n N n n n n n n n m m n ; } W.b.[.",
"[.[.^.q.- m h h g.$., n n n n n x f n n n N 5 q 5 m n - w.W.[.[.",
"[.[.b.Y.~ , n n ) L h m n n m n F ~ x n n 5 #.s.*.2 < / Y.m.[.[.",
"[.[.[.].i.9 g m 9 z m n n n n h L o.f x x ; f.].g.$ 5 i.].[.[.[.",
"[.[.[.c.].2.$ h n n n n n n m m x 5 m n m 9 | u.| X 2.].x.[.[.[.",
"[.[.[.[.S.E.:.$ f n n n n b w m n n n n m m q $   :.E.F.[.[.[.[.",
"[.[.[.[.[.I.E.2.q < n n b S { h n n n n m m ; 5 2.E.L.[.[.[.[.[.",
"[.[.[.[.[.[.H.].i./ - ; p C W b n n n h ; - / i.].H.[.[.[.[.[.[.",
"[.[.[.[.[.[.[.M.].Y.0.} F 5 O = - - 5 A | 0.Y.].N.[.[.[.[.[.[.[.",
"[.[.[.[.[.[.[.[.[.G.^.!.l.y.5.,.,.5.t.l.!.).F.[.[.[.[.[.[.[.[.[.",
"[.[.[.[.[.[.[.[.[.[.[.N.L.U.!.^.^.!.U.H.N.[.[.[.[.[.[.[.[.[.[.[.",
"[.[.[.[.[.[.[.[.[.[.[.[.[.[.[.[.[.[.[.[.[.[.[.[.[.[.[.[.[.[.[.[."
};
